<svg width="50" height="50" viewBox="0 0 50 50" fill="none" xmlns="http://www.w3.org/2000/svg">
<path d="M49.8564 41.0141L40.7128 24.1047C41.6456 21.9875 42.1675 19.6477 42.1675 17.1859C42.1675 7.69844 34.4761 0.0078125 24.9894 0.0078125C15.5003 0.0078125 7.80967 7.69922 7.80967 17.1859C7.80967 19.707 8.35732 22.0992 9.33232 24.2555L0.147947 41.0062C-0.148196 41.5445 -0.0989772 42.2086 0.271335 42.7C0.642429 43.1899 1.26899 43.4203 1.86738 43.2797L9.71035 41.4805L12.3947 48.9571C12.6041 49.5383 13.1346 49.9415 13.7494 49.9868C13.7893 49.9899 13.8275 49.9915 13.865 49.9915C14.1476 49.9914 14.4248 49.9147 14.6672 49.7695C14.9096 49.6244 15.1081 49.4162 15.2416 49.1672L23.2346 34.2759C23.8173 34.3349 24.4027 34.3644 24.9885 34.3642C25.5314 34.3642 26.0673 34.336 26.597 34.286L34.7634 49.179C34.9079 49.443 35.1256 49.6596 35.3904 49.8028C35.6551 49.946 35.9556 50.0096 36.2556 49.986C36.8689 49.9368 37.397 49.5344 37.6048 48.9563L40.2892 41.4797L48.1321 43.279C48.7337 43.4242 49.354 43.1906 49.7251 42.7023C50.0978 42.2148 50.1478 41.5539 49.8563 41.0141H49.8564ZM14.1493 44.5969L12.1836 39.1203C11.9148 38.3757 11.1352 37.9421 10.3633 38.1257L4.5625 39.4562L11.1743 27.3968C13.3517 30.3382 16.4454 32.557 20.0337 33.6367L14.1493 44.5969ZM10.9485 17.1859C10.9485 9.44448 17.2477 3.14604 24.9899 3.14604C32.7313 3.14604 39.0297 9.44448 39.0297 17.1859C39.0297 24.9273 32.7313 31.2273 24.9899 31.2273C17.2469 31.2273 10.9485 24.9273 10.9485 17.1859ZM39.636 38.1257C38.861 37.9429 38.0844 38.3757 37.8157 39.1202L35.8367 44.6366L29.8234 33.6717C33.507 32.5928 36.6758 30.3155 38.8813 27.2882L45.4657 39.4624L39.636 38.1257Z" fill="black"/>
</svg>
