<svg width="34" height="34" viewBox="0 0 34 34" fill="none" xmlns="http://www.w3.org/2000/svg">
<path d="M17 0.333344C19.2101 0.333344 21.3298 1.21132 22.8926 2.77412C24.4554 4.33692 25.3333 6.45654 25.3333 8.66668C25.3333 10.8768 24.4554 12.9964 22.8926 14.5592C21.3298 16.122 19.2101 17 17 17C14.7899 17 12.6702 16.122 11.1074 14.5592C9.54464 12.9964 8.66667 10.8768 8.66667 8.66668C8.66667 6.45654 9.54464 4.33692 11.1074 2.77412C12.6702 1.21132 14.7899 0.333344 17 0.333344ZM17 4.50001C15.8949 4.50001 14.8351 4.939 14.0537 5.7204C13.2723 6.5018 12.8333 7.56161 12.8333 8.66668C12.8333 9.77175 13.2723 10.8316 14.0537 11.613C14.8351 12.3944 15.8949 12.8333 17 12.8333C18.1051 12.8333 19.1649 12.3944 19.9463 11.613C20.7277 10.8316 21.1667 9.77175 21.1667 8.66668C21.1667 7.56161 20.7277 6.5018 19.9463 5.7204C19.1649 4.939 18.1051 4.50001 17 4.50001ZM17 19.0833C22.5625 19.0833 33.6667 21.8542 33.6667 27.4167V33.6667H0.333332V27.4167C0.333332 21.8542 11.4375 19.0833 17 19.0833ZM17 23.0417C10.8125 23.0417 4.29167 26.0833 4.29167 27.4167V29.7083H29.7083V27.4167C29.7083 26.0833 23.1875 23.0417 17 23.0417Z" fill="black"/>
</svg>
