<svg width="50" height="50" viewBox="0 0 50 50" fill="none" xmlns="http://www.w3.org/2000/svg">
<path id="Vector" fill-rule="evenodd" clip-rule="evenodd" d="M6.66582 18.3342H4.99972C3.67335 18.3342 2.40077 18.8608 1.46509 19.7993C0.526584 20.7364 0 22.0075 0 23.3339V31.6672C0 32.9936 0.526584 34.2662 1.46509 35.2019C2.40219 36.1404 3.67335 36.6669 4.99972 36.6669H9.99943C10.9195 36.6669 11.6655 35.921 11.6655 35.0009V20.0017C11.6655 19.0816 10.9195 18.3356 9.99943 18.3356C9.99943 14.3565 11.5792 10.5416 14.3933 7.72889C17.2074 4.9162 21.0209 3.33362 25 3.33362C28.9791 3.33362 32.794 4.91337 35.6067 7.72748C38.4194 10.5416 40.0006 14.3565 40.0006 18.3342C39.0805 18.3342 38.3345 19.0802 38.3345 20.0003V35.0009C38.3345 35.921 39.0805 36.6669 40.0006 36.6669V40.0006C40.0006 41.8422 38.5086 43.3342 36.667 43.3342H29.7152C29.0287 41.392 27.1757 40.0006 25 40.0006C22.2397 40.0006 20.0003 42.24 20.0003 45.0003C20.0003 47.7606 22.2397 50 25 50C27.1757 50 29.0287 48.6085 29.7152 46.6664H36.667C40.3488 46.6664 43.3342 43.681 43.3342 39.9991C43.3342 38.2269 43.3342 36.6655 43.3342 36.6655H45.0003C46.3267 36.6655 47.5992 36.1389 48.5349 35.2004C49.4734 34.2633 50 32.9922 50 31.6658C50 29.1858 50 25.8125 50 23.3325C50 22.0061 49.4734 20.7335 48.5349 19.7979C47.5978 18.8594 46.3267 18.3328 45.0003 18.3328H43.3342C43.3342 13.4704 41.402 8.80754 37.9636 5.36917C34.5252 1.93081 29.8624 0 25 0C20.1376 0 15.4748 1.93222 12.0364 5.37059C8.59804 8.80896 6.66582 13.4732 6.66582 18.3342ZM25 15.0006C18.5621 15.0006 13.3331 20.2296 13.3331 26.6675C13.3331 33.1054 18.5621 38.3359 25 38.3359C31.4379 38.3359 36.667 33.1068 36.667 26.6689C36.667 20.231 31.4379 15.0006 25 15.0006ZM20.3712 28.0463L22.871 30.5461C23.5222 31.1973 24.5782 31.1973 25.2293 30.5461L30.229 25.5464C30.8788 24.8967 30.8788 23.8392 30.229 23.1895C29.5779 22.5398 28.5219 22.5398 27.8707 23.1895L24.0488 27.0115L22.728 25.6894C22.0769 25.0396 21.0209 25.0396 20.3697 25.6894C19.7214 26.3391 19.7214 27.3965 20.3712 28.0463ZM20.7449 13.1575C20.7449 13.1575 25 11.0314 29.2551 13.1575C30.0762 13.5694 31.0798 13.2354 31.4903 12.4129C31.9022 11.5919 31.5681 10.5883 30.7457 10.1778C25 7.30423 19.2557 10.1778 19.2557 10.1778C18.4319 10.5883 18.0992 11.5905 18.5111 12.4129C18.9202 13.2354 19.9238 13.5694 20.7449 13.1575Z" fill="white"/>
</svg>
