<svg width="50" height="50" viewBox="0 0 50 50" fill="none" xmlns="http://www.w3.org/2000/svg">
<g id="Group">
<path id="Vector" d="M46.3313 43.2056C45.4588 42.419 44.1111 42.2608 43.0455 42.8213L39.6707 39.7679L38.6909 40.6544L42.0657 43.7077C41.4462 44.6705 41.621 45.8913 42.4904 46.6807L45.3515 49.2693C46.4049 50.2349 48.1252 50.2446 49.1924 49.2915C50.2596 48.3385 50.2703 46.7819 49.2169 45.8164C49.2093 45.8095 49.2016 45.8025 49.1924 45.7942L46.3313 43.2056Z" fill="white"/>
<path id="Vector_2" d="M17.4105 16.1634C21.026 16.1593 23.9561 13.5096 23.9592 10.2384V5.86983C23.9254 2.59724 20.9662 -0.0302569 17.3492 0.000263212C13.7797 0.0307833 10.8955 2.64025 10.8618 5.86983V10.2384C10.8649 13.5082 13.795 16.1593 17.4105 16.1634Z" fill="white"/>
<path id="Vector_3" d="M16.7313 23.0263H18.0883L18.8534 21.0051H15.9662L16.7313 23.0263Z" fill="white"/>
<path id="Vector_4" d="M21.647 33.8609C21.647 28.6073 26.3542 24.3483 32.1607 24.3483C32.6912 24.3483 33.2202 24.3844 33.7446 24.4551C32.3508 22.316 29.8102 21.0036 27.0656 21.0064H23.9699C23.9561 21.0064 23.9408 21.0064 23.927 21.005C22.9165 20.9759 21.9965 20.4667 21.509 19.6663L20.4311 20.7095L19.2627 23.7435L21.1563 33.5959C21.1916 33.7804 21.1348 33.9691 20.9999 34.1106L17.8996 37.3859C17.7677 37.5247 17.5761 37.6051 17.3737 37.6051H17.3691C17.1652 37.6037 16.972 37.5219 16.8416 37.3804L13.8149 34.105C13.6815 33.9594 13.6263 33.7679 13.6662 33.582L15.7438 23.9654L14.3838 20.6998L13.358 19.6566C12.8566 20.4875 11.8952 21.0036 10.848 21.005H7.75537C3.47443 21.0091 0.00459986 24.1486 0 28.0218V39.4072H23.6203C22.3323 37.7924 21.6408 35.8516 21.647 33.8609Z" fill="white"/>
<path id="Vector_5" d="M17.0885 24.2803L15.0906 33.5292L17.3798 36.0083L19.7334 33.5195L17.9594 24.2803H17.0885Z" fill="white"/>
<path id="Vector_6" d="M25.7071 28.0204C22.1346 31.2458 22.1284 36.4814 25.6933 39.7138C29.2582 42.9461 35.0449 42.9517 38.6174 39.7262C42.19 36.5008 42.1961 31.2652 38.6312 28.0329C36.917 26.4778 34.5895 25.6052 32.1623 25.6052C29.7412 25.6052 27.4198 26.4736 25.7071 28.0204ZM36.6931 30.9781C36.9645 31.2222 36.9645 31.6204 36.6931 31.8646L31.3036 36.7408C31.0338 36.9864 30.5937 36.9864 30.3239 36.7408L27.6283 34.302C27.36 34.0551 27.3631 33.6583 27.636 33.4155C27.9059 33.1755 28.3383 33.1755 28.6081 33.4155L30.813 35.4104L35.7134 30.9767C35.9848 30.7339 36.4233 30.7339 36.6931 30.9781Z" fill="white"/>
</g>
</svg>
