<svg width="50" height="50" viewBox="0 0 50 50" fill="none" xmlns="http://www.w3.org/2000/svg">
<g id="Group">
<path id="Vector" d="M4.68682 21.8763H1.56228C0.702664 21.8763 0 22.5789 0 23.4385V39.0632C0 39.9228 0.702664 40.6254 1.56228 40.6254H4.68682C5.54644 40.6254 6.2491 39.9228 6.2491 39.0632V23.4385C6.2491 22.5789 5.54644 21.8763 4.68682 21.8763Z" fill="white"/>
<path id="Vector_2" d="M48.4377 21.8763H45.3131C44.4535 21.8763 43.7509 22.5789 43.7509 23.4385V39.0632C43.7509 39.9228 44.4535 40.6254 45.3131 40.6254H48.4377C49.2973 40.6254 50 39.9228 50 39.0632V23.4385C50.0014 22.5789 49.2973 21.8763 48.4377 21.8763Z" fill="white"/>
<path id="Vector_3" d="M27.6674 42.6455L19.8546 34.8331C19.5493 34.5279 19.1505 34.3752 18.7502 34.3752C18.3499 34.3752 17.9496 34.5279 17.6458 34.8331L12.9575 39.5211C12.347 40.1316 12.347 41.1207 12.9575 41.7298L20.7703 49.5421C21.0756 49.8474 21.4744 50 21.8747 50C22.275 50 22.6753 49.8474 22.9791 49.5421L27.6674 44.8541C28.2779 44.2451 28.2779 43.2559 27.6674 42.6455Z" fill="white"/>
<path id="Vector_4" d="M39.0626 21.8763H20.3124C18.586 21.8763 17.1879 23.2758 17.1879 25.0007C17.1879 26.7255 18.5874 28.125 20.3124 28.125H25.0007L37.5018 40.6254H39.064C40.7905 40.6254 42.1886 39.2259 42.1886 37.501V25.0007C42.1886 23.2758 40.789 21.8763 39.0626 21.8763Z" fill="white"/>
<path id="Vector_5" d="M9.37515 12.5018C11.9597 12.5018 14.0634 10.3997 14.0634 7.81379C14.0634 5.2279 11.9612 3.12579 9.37515 3.12579C6.78912 3.12579 4.68689 5.2279 4.68689 7.81379C4.68689 10.3997 6.78912 12.5018 9.37515 12.5018Z" fill="white"/>
<path id="Vector_6" d="M40.6263 12.5018C43.2108 12.5018 45.3145 10.3997 45.3145 7.81379C45.3145 5.2279 43.2123 3.12579 40.6263 3.12579C38.0402 3.12579 35.938 5.2279 35.938 7.81379C35.938 10.3997 38.0402 12.5018 40.6263 12.5018Z" fill="white"/>
<path id="Vector_7" d="M4.68679 18.7505H14.0619C14.9244 18.7505 15.6242 18.0508 15.6242 17.1883V15.6262C15.6242 14.1489 15.1015 12.7969 14.2404 11.7272C13.0928 13.1497 11.3391 14.0625 9.37505 14.0625C7.41105 14.0625 5.65583 13.1511 4.50824 11.7272C3.64719 12.7969 3.12451 14.1475 3.12451 15.6262V17.1883C3.12451 18.0508 3.8243 18.7505 4.68679 18.7505Z" fill="white"/>
<path id="Vector_8" d="M35.938 18.7505H45.3131C46.1756 18.7505 46.8754 18.0508 46.8754 17.1883V15.6262C46.8754 14.1489 46.3527 12.7969 45.4917 11.7272C44.3441 13.1497 42.5903 14.0625 40.6263 14.0625C38.6623 14.0625 36.9071 13.1497 35.7609 11.7272C34.8999 12.7969 34.3772 14.1475 34.3772 15.6262V17.1883C34.3758 18.0508 35.0755 18.7505 35.938 18.7505Z" fill="white"/>
<path id="Vector_9" d="M20.3124 15.6262H29.6875C30.55 15.6262 31.2498 14.9265 31.2498 14.064V12.5018C31.2498 11.0246 30.7271 9.67262 29.8661 8.60284C28.7185 10.0254 26.9647 10.9382 25.0007 10.9382C23.0367 10.9382 21.2815 10.0254 20.1353 8.60284C19.2743 9.67262 18.7516 11.0232 18.7516 12.5018V14.064C18.7501 14.9265 19.4499 15.6262 20.3124 15.6262Z" fill="white"/>
<path id="Vector_10" d="M25.0008 9.37599C27.5854 9.37599 29.689 7.27388 29.689 4.68799C29.689 2.10211 27.5868 0 25.0008 0C22.4147 0 20.3125 2.10211 20.3125 4.68799C20.3125 7.27388 22.4147 9.37599 25.0008 9.37599Z" fill="white"/>
<path id="Vector_11" d="M20.3124 29.6886C17.7278 29.6886 15.6241 27.5865 15.6241 25.0007C15.6241 23.7999 16.082 22.7056 16.8278 21.8763H10.9358C9.20941 21.8763 7.81128 23.2758 7.81128 25.0007V37.501C7.81128 39.2273 9.21085 40.6254 10.9358 40.6254H10.9373C10.9373 39.8249 11.2425 39.0243 11.8516 38.4167L16.5399 33.7287C17.1288 33.1384 17.9135 32.813 18.7486 32.813C19.5838 32.813 20.3685 33.1384 20.9589 33.7287L28.7702 41.5397C29.9884 42.7577 29.9884 44.7403 28.7702 45.9584L26.1036 48.6249L27.0193 49.5406C27.3246 49.8459 27.7234 49.9985 28.1237 49.9985C28.524 49.9985 28.9243 49.8459 29.2281 49.5406L36.717 42.0522L24.3498 29.6872L20.3124 29.6886Z" fill="white"/>
</g>
</svg>
