<svg width="21" height="20" viewBox="0 0 21 20" fill="none" xmlns="http://www.w3.org/2000/svg">
<g id="mingcute:facebook-fill">
<g id="Group">
<path id="Vector" d="M11.75 18.2401C15.7591 17.6367 18.8333 14.1776 18.8333 10.0001C18.8333 5.39758 15.1025 1.66675 10.5 1.66675C5.89746 1.66675 2.16663 5.39758 2.16663 10.0001C2.16663 14.1776 5.24079 17.6376 9.24996 18.2401V12.5001H7.99996C7.66844 12.5001 7.3505 12.3684 7.11608 12.134C6.88166 11.8995 6.74996 11.5816 6.74996 11.2501C6.74996 10.9186 6.88166 10.6006 7.11608 10.3662C7.3505 10.1318 7.66844 10.0001 7.99996 10.0001H9.24996V8.33341C9.24996 7.55987 9.55725 6.818 10.1042 6.27102C10.6512 5.72404 11.3931 5.41675 12.1666 5.41675H12.5833C12.9148 5.41675 13.2328 5.54844 13.4672 5.78286C13.7016 6.01728 13.8333 6.33523 13.8333 6.66675C13.8333 6.99827 13.7016 7.31621 13.4672 7.55063C13.2328 7.78505 12.9148 7.91675 12.5833 7.91675H12.1666C12.0561 7.91675 11.9501 7.96065 11.872 8.03879C11.7939 8.11693 11.75 8.22291 11.75 8.33341V10.0001H13C13.3315 10.0001 13.6494 10.1318 13.8838 10.3662C14.1183 10.6006 14.25 10.9186 14.25 11.2501C14.25 11.5816 14.1183 11.8995 13.8838 12.134C13.6494 12.3684 13.3315 12.5001 13 12.5001H11.75V18.2401Z" fill="white"/>
</g>
</g>
</svg>
