<svg width="21" height="20" viewBox="0 0 21 20" fill="none" xmlns="http://www.w3.org/2000/svg">
<g id="ri:instagram-fill">
<path id="Vector" d="M11.3566 1.66675C12.2941 1.66925 12.7699 1.67425 13.1808 1.68591L13.3424 1.69175C13.5291 1.69841 13.7133 1.70675 13.9358 1.71675C14.8224 1.75841 15.4274 1.89841 15.9583 2.10425C16.5083 2.31591 16.9716 2.60258 17.4349 3.06508C17.8589 3.48153 18.1868 3.98547 18.3958 4.54175C18.6016 5.07258 18.7416 5.67758 18.7833 6.56508C18.7933 6.78675 18.8016 6.97091 18.8083 7.15841L18.8133 7.32008C18.8258 7.73008 18.8308 8.20591 18.8324 9.14341L18.8333 9.76508V10.8567C18.8353 11.4646 18.8289 12.0724 18.8141 12.6801L18.8091 12.8417C18.8024 13.0292 18.7941 13.2134 18.7841 13.4351C18.7424 14.3226 18.6008 14.9267 18.3958 15.4584C18.1868 16.0147 17.8589 16.5186 17.4349 16.9351C17.0185 17.359 16.5146 17.6869 15.9583 17.8959C15.4274 18.1017 14.8224 18.2417 13.9358 18.2834L13.3424 18.3084L13.1808 18.3134C12.7699 18.3251 12.2941 18.3309 11.3566 18.3326L10.7349 18.3334H9.64411C9.036 18.3356 8.42788 18.3292 7.81995 18.3142L7.65828 18.3092C7.46045 18.3018 7.26267 18.2931 7.06494 18.2834C6.17828 18.2417 5.57328 18.1017 5.04161 17.8959C4.48564 17.6868 3.98198 17.3589 3.56578 16.9351C3.14157 16.5187 2.81337 16.0148 2.60411 15.4584C2.39828 14.9276 2.25828 14.3226 2.21661 13.4351L2.19161 12.8417L2.18745 12.6801C2.17208 12.0724 2.16514 11.4646 2.16661 10.8567V9.14341C2.16431 8.53558 2.17042 7.92775 2.18495 7.32008L2.19078 7.15841C2.19745 6.97091 2.20578 6.78675 2.21578 6.56508C2.25745 5.67758 2.39744 5.07341 2.60328 4.54175C2.81302 3.98525 3.1418 3.48128 3.56661 3.06508C3.98257 2.64137 4.48593 2.31348 5.04161 2.10425C5.57328 1.89841 6.17744 1.75841 7.06494 1.71675C7.28661 1.70675 7.47161 1.69841 7.65828 1.69175L7.81995 1.68675C8.42761 1.67194 9.03544 1.66555 9.64328 1.66758L11.3566 1.66675ZM10.4999 5.83341C9.39488 5.83341 8.33507 6.2724 7.55367 7.0538C6.77226 7.8352 6.33328 8.89501 6.33328 10.0001C6.33328 11.1052 6.77226 12.165 7.55367 12.9464C8.33507 13.7278 9.39488 14.1667 10.4999 14.1667C11.605 14.1667 12.6648 13.7278 13.4462 12.9464C14.2276 12.165 14.6666 11.1052 14.6666 10.0001C14.6666 8.89501 14.2276 7.8352 13.4462 7.0538C12.6648 6.2724 11.605 5.83341 10.4999 5.83341ZM10.4999 7.50008C10.8282 7.50003 11.1533 7.56464 11.4567 7.69022C11.76 7.81581 12.0356 7.99991 12.2678 8.23202C12.5 8.46413 12.6842 8.7397 12.8099 9.04299C12.9356 9.34628 13.0003 9.67136 13.0004 9.99966C13.0004 10.328 12.9358 10.6531 12.8102 10.9564C12.6846 11.2597 12.5005 11.5354 12.2684 11.7676C12.0363 11.9997 11.7607 12.1839 11.4575 12.3096C11.1542 12.4353 10.8291 12.5 10.5008 12.5001C9.83774 12.5001 9.20185 12.2367 8.73301 11.7678C8.26417 11.299 8.00078 10.6631 8.00078 10.0001C8.00078 9.33704 8.26417 8.70115 8.73301 8.23231C9.20185 7.76347 9.83774 7.50008 10.5008 7.50008M14.8758 4.58341C14.5995 4.58341 14.3346 4.69316 14.1392 4.88851C13.9439 5.08386 13.8341 5.34881 13.8341 5.62508C13.8341 5.90135 13.9439 6.1663 14.1392 6.36165C14.3346 6.557 14.5995 6.66675 14.8758 6.66675C15.152 6.66675 15.417 6.557 15.6123 6.36165C15.8077 6.1663 15.9174 5.90135 15.9174 5.62508C15.9174 5.34881 15.8077 5.08386 15.6123 4.88851C15.417 4.69316 15.152 4.58341 14.8758 4.58341Z" fill="white"/>
</g>
</svg>
